  0
SECTION
  2
HEADER
  9
$ACADVER
  1
AC1024
  9
$ACADMAINTVER
 70
6
  9
$DWGCODEPAGE
  3
ANSI_1252
  9
$LASTSAVEDBY
  1
ezdxf
  9
$INSBASE
 10
0.0
 20
0.0
 30
0.0
  9
$EXTMIN
 10
1e+20
 20
1e+20
 30
1e+20
  9
$EXTMAX
 10
-1e+20
 20
-1e+20
 30
-1e+20
  9
$LIMMIN
 10
0.0
 20
0.0
  9
$LIMMAX
 10
420.0
 20
297.0
  9
$ORTHOMODE
 70
0
  9
$REGENMODE
 70
1
  9
$FILLMODE
 70
1
  9
$QTEXTMODE
 70
0
  9
$MIRRTEXT
 70
1
  9
$LTSCALE
 40
1.0
  9
$ATTMODE
 70
1
  9
$TEXTSIZE
 40
2.5
  9
$TRACEWID
 40
1.0
  9
$TEXTSTYLE
  7
Standard
  9
$CLAYER
  8
0
  9
$CELTYPE
  6
ByLayer
  9
$CECOLOR
 62
256
  9
$CELTSCALE
 40
1.0
  9
$DISPSILH
 70
0
  9
$DIMSCALE
 40
1.0
  9
$DIMASZ
 40
2.5
  9
$DIMEXO
 40
0.625
  9
$DIMDLI
 40
3.75
  9
$DIMRND
 40
0.0
  9
$DIMDLE
 40
0.0
  9
$DIMEXE
 40
1.25
  9
$DIMTP
 40
0.0
  9
$DIMTM
 40
0.0
  9
$DIMTXT
 40
2.5
  9
$DIMCEN
 40
2.5
  9
$DIMTSZ
 40
0.0
  9
$DIMTOL
 70
0
  9
$DIMLIM
 70
0
  9
$DIMTIH
 70
0
  9
$DIMTOH
 70
0
  9
$DIMSE1
 70
0
  9
$DIMSE2
 70
0
  9
$DIMTAD
 70
1
  9
$DIMZIN
 70
8
  9
$DIMBLK
  1

  9
$DIMASO
 70
1
  9
$DIMSHO
 70
1
  9
$DIMPOST
  1

  9
$DIMAPOST
  1

  9
$DIMALT
 70
0
  9
$DIMALTD
 70
3
  9
$DIMALTF
 40
0.03937007874
  9
$DIMLFAC
 40
1.0
  9
$DIMTOFL
 70
1
  9
$DIMTVP
 40
0.0
  9
$DIMTIX
 70
0
  9
$DIMSOXD
 70
0
  9
$DIMSAH
 70
0
  9
$DIMBLK1
  1

  9
$DIMBLK2
  1

  9
$DIMSTYLE
  2
ISO-25
  9
$DIMCLRD
 70
0
  9
$DIMCLRE
 70
0
  9
$DIMCLRT
 70
0
  9
$DIMTFAC
 40
1.0
  9
$DIMGAP
 40
0.625
  9
$DIMJUST
 70
0
  9
$DIMSD1
 70
0
  9
$DIMSD2
 70
0
  9
$DIMTOLJ
 70
0
  9
$DIMTZIN
 70
8
  9
$DIMALTZ
 70
0
  9
$DIMALTTZ
 70
0
  9
$DIMUPT
 70
0
  9
$DIMDEC
 70
2
  9
$DIMTDEC
 70
2
  9
$DIMALTU
 70
2
  9
$DIMALTTD
 70
3
  9
$DIMTXSTY
  7
Standard
  9
$DIMAUNIT
 70
0
  9
$DIMADEC
 70
0
  9
$DIMALTRND
 40
0.0
  9
$DIMAZIN
 70
0
  9
$DIMDSEP
 70
44
  9
$DIMATFIT
 70
3
  9
$DIMFRAC
 70
0
  9
$DIMLDRBLK
  1

  9
$DIMLUNIT
 70
2
  9
$DIMLWD
 70
-2
  9
$DIMLWE
 70
-2
  9
$DIMTMOVE
 70
0
  9
$DIMFXL
 40
1.0
  9
$DIMFXLON
 70
0
  9
$DIMJOGANG
 40
0.785398163397
  9
$DIMTFILL
 70
0
  9
$DIMTFILLCLR
 70
0
  9
$DIMARCSYM
 70
0
  9
$DIMLTYPE
  6

  9
$DIMLTEX1
  6

  9
$DIMLTEX2
  6

  9
$DIMTXTDIRECTION
 70
0
  9
$LUNITS
 70
2
  9
$LUPREC
 70
4
  9
$SKETCHINC
 40
1.0
  9
$FILLETRAD
 40
10.0
  9
$AUNITS
 70
0
  9
$AUPREC
 70
2
  9
$MENU
  1
.
  9
$ELEVATION
 40
0.0
  9
$PELEVATION
 40
0.0
  9
$THICKNESS
 40
0.0
  9
$LIMCHECK
 70
0
  9
$CHAMFERA
 40
0.0
  9
$CHAMFERB
 40
0.0
  9
$CHAMFERC
 40
0.0
  9
$CHAMFERD
 40
0.0
  9
$SKPOLY
 70
0
  9
$TDCREATE
 40
2461249.4550694446
  9
$TDUCREATE
 40
2458532.153996898
  9
$TDUPDATE
 40
2461249.4550694446
  9
$TDUUPDATE
 40
2458532.1544311
  9
$TDINDWG
 40
0.0
  9
$TDUSRTIMER
 40
0.0
  9
$USRTIMER
 70
1
  9
$ANGBASE
 50
0.0
  9
$ANGDIR
 70
0
  9
$PDMODE
 70
0
  9
$PDSIZE
 40
0.0
  9
$PLINEWID
 40
0.0
  9
$SPLFRAME
 70
0
  9
$SPLINETYPE
 70
6
  9
$SPLINESEGS
 70
8
  9
$HANDSEED
  5
7B
  9
$SURFTAB1
 70
6
  9
$SURFTAB2
 70
6
  9
$SURFTYPE
 70
6
  9
$SURFU
 70
6
  9
$SURFV
 70
6
  9
$UCSBASE
  2

  9
$UCSNAME
  2

  9
$UCSORG
 10
0.0
 20
0.0
 30
0.0
  9
$UCSXDIR
 10
1.0
 20
0.0
 30
0.0
  9
$UCSYDIR
 10
0.0
 20
1.0
 30
0.0
  9
$UCSORTHOREF
  2

  9
$UCSORTHOVIEW
 70
0
  9
$UCSORGTOP
 10
0.0
 20
0.0
 30
0.0
  9
$UCSORGBOTTOM
 10
0.0
 20
0.0
 30
0.0
  9
$UCSORGLEFT
 10
0.0
 20
0.0
 30
0.0
  9
$UCSORGRIGHT
 10
0.0
 20
0.0
 30
0.0
  9
$UCSORGFRONT
 10
0.0
 20
0.0
 30
0.0
  9
$UCSORGBACK
 10
0.0
 20
0.0
 30
0.0
  9
$PUCSBASE
  2

  9
$PUCSNAME
  2

  9
$PUCSORG
 10
0.0
 20
0.0
 30
0.0
  9
$PUCSXDIR
 10
1.0
 20
0.0
 30
0.0
  9
$PUCSYDIR
 10
0.0
 20
1.0
 30
0.0
  9
$PUCSORTHOREF
  2

  9
$PUCSORTHOVIEW
 70
0
  9
$PUCSORGTOP
 10
0.0
 20
0.0
 30
0.0
  9
$PUCSORGBOTTOM
 10
0.0
 20
0.0
 30
0.0
  9
$PUCSORGLEFT
 10
0.0
 20
0.0
 30
0.0
  9
$PUCSORGRIGHT
 10
0.0
 20
0.0
 30
0.0
  9
$PUCSORGFRONT
 10
0.0
 20
0.0
 30
0.0
  9
$PUCSORGBACK
 10
0.0
 20
0.0
 30
0.0
  9
$USERI1
 70
0
  9
$USERI2
 70
0
  9
$USERI3
 70
0
  9
$USERI4
 70
0
  9
$USERI5
 70
0
  9
$USERR1
 40
0.0
  9
$USERR2
 40
0.0
  9
$USERR3
 40
0.0
  9
$USERR4
 40
0.0
  9
$USERR5
 40
0.0
  9
$WORLDVIEW
 70
1
  9
$SHADEDGE
 70
3
  9
$SHADEDIF
 70
70
  9
$TILEMODE
 70
1
  9
$MAXACTVP
 70
64
  9
$PINSBASE
 10
0.0
 20
0.0
 30
0.0
  9
$PLIMCHECK
 70
0
  9
$PEXTMIN
 10
1e+20
 20
1e+20
 30
1e+20
  9
$PEXTMAX
 10
-1e+20
 20
-1e+20
 30
-1e+20
  9
$PLIMMIN
 10
0.0
 20
0.0
  9
$PLIMMAX
 10
420.0
 20
297.0
  9
$UNITMODE
 70
0
  9
$VISRETAIN
 70
1
  9
$PLINEGEN
 70
0
  9
$PSLTSCALE
 70
1
  9
$TREEDEPTH
 70
3020
  9
$CMLSTYLE
  2
Standard
  9
$CMLJUST
 70
0
  9
$CMLSCALE
 40
20.0
  9
$PROXYGRAPHICS
 70
1
  9
$MEASUREMENT
 70
1
  9
$CELWEIGHT
370
-1
  9
$ENDCAPS
280
0
  9
$JOINSTYLE
280
0
  9
$LWDISPLAY
290
0
  9
$INSUNITS
 70
4
  9
$HYPERLINKBASE
  1

  9
$STYLESHEET
  1

  9
$XEDIT
290
1
  9
$CEPSNTYPE
380
0
  9
$PSTYLEMODE
290
1
  9
$FINGERPRINTGUID
  2
{71A9004A-13D0-4A92-A87C-96A5DD0362FB}
  9
$VERSIONGUID
  2
{32E45437-B585-49DE-BC18-FEC1A4BBBA1D}
  9
$EXTNAMES
290
1
  9
$PSVPSCALE
 40
0.0
  9
$OLESTARTUP
290
0
  9
$SORTENTS
280
127
  9
$INDEXCTL
280
0
  9
$HIDETEXT
280
1
  9
$XCLIPFRAME
280
1
  9
$HALOGAP
280
0
  9
$OBSCOLOR
 70
257
  9
$OBSLTYPE
280
0
  9
$INTERSECTIONDISPLAY
280
0
  9
$INTERSECTIONCOLOR
 70
257
  9
$DIMASSOC
280
2
  9
$PROJECTNAME
  1

  9
$CAMERADISPLAY
290
0
  9
$LENSLENGTH
 40
50.0
  9
$CAMERAHEIGHT
 40
0.0
  9
$STEPSPERSEC
 40
24.0
  9
$STEPSIZE
 40
100.0
  9
$3DDWFPREC
 40
2.0
  9
$PSOLWIDTH
 40
0.005
  9
$PSOLHEIGHT
 40
0.08
  9
$LOFTANG1
 40
1.570796326795
  9
$LOFTANG2
 40
1.570796326795
  9
$LOFTMAG1
 40
0.0
  9
$LOFTMAG2
 40
0.0
  9
$LOFTPARAM
 70
7
  9
$LOFTNORMALS
280
1
  9
$LATITUDE
 40
37.795
  9
$LONGITUDE
 40
-122.394
  9
$NORTHDIRECTION
 40
0.0
  9
$TIMEZONE
 70
-8000
  9
$LIGHTGLYPHDISPLAY
280
1
  9
$TILEMODELIGHTSYNCH
280
1
  9
$CMATERIAL
347
20
  9
$SOLIDHIST
280
0
  9
$SHOWHIST
280
1
  9
$DWFFRAME
280
2
  9
$DGNFRAME
280
2
  9
$REALWORLDSCALE
290
1
  9
$INTERFERECOLOR
 62
256
  9
$CSHADOW
280
0
  9
$SHADOWPLANELOCATION
 40
0.0
  0
ENDSEC
  0
SECTION
  2
CLASSES
  0
CLASS
  1
ACDBDICTIONARYWDFLT
  2
AcDbDictionaryWithDefault
  3
ObjectDBX Classes
 90
0
 91
0
280
0
281
0
  0
CLASS
  1
SUN
  2
AcDbSun
  3
SCENEOE
 90
1153
 91
0
280
0
281
0
  0
CLASS
  1
VISUALSTYLE
  2
AcDbVisualStyle
  3
ObjectDBX Classes
 90
4095
 91
0
280
0
281
0
  0
CLASS
  1
MATERIAL
  2
AcDbMaterial
  3
ObjectDBX Classes
 90
1153
 91
0
280
0
281
0
  0
CLASS
  1
SCALE
  2
AcDbScale
  3
ObjectDBX Classes
 90
1153
 91
0
280
0
281
0
  0
CLASS
  1
TABLESTYLE
  2
AcDbTableStyle
  3
ObjectDBX Classes
 90
4095
 91
0
280
0
281
0
  0
CLASS
  1
MLEADERSTYLE
  2
AcDbMLeaderStyle
  3
ACDB_MLEADERSTYLE_CLASS
 90
4095
 91
0
280
0
281
0
  0
CLASS
  1
DICTIONARYVAR
  2
AcDbDictionaryVar
  3
ObjectDBX Classes
 90
0
 91
0
280
0
281
0
  0
CLASS
  1
CELLSTYLEMAP
  2
AcDbCellStyleMap
  3
ObjectDBX Classes
 90
1152
 91
0
280
0
281
0
  0
CLASS
  1
MENTALRAYRENDERSETTINGS
  2
AcDbMentalRayRenderSettings
  3
SCENEOE
 90
1024
 91
0
280
0
281
0
  0
CLASS
  1
ACDBDETAILVIEWSTYLE
  2
AcDbDetailViewStyle
  3
ObjectDBX Classes
 90
1025
 91
0
280
0
281
0
  0
CLASS
  1
ACDBSECTIONVIEWSTYLE
  2
AcDbSectionViewStyle
  3
ObjectDBX Classes
 90
1025
 91
0
280
0
281
0
  0
CLASS
  1
RASTERVARIABLES
  2
AcDbRasterVariables
  3
ISM
 90
0
 91
0
280
0
281
0
  0
CLASS
  1
ACDBPLACEHOLDER
  2
AcDbPlaceHolder
  3
ObjectDBX Classes
 90
0
 91
0
280
0
281
0
  0
CLASS
  1
LAYOUT
  2
AcDbLayout
  3
ObjectDBX Classes
 90
0
 91
0
280
0
281
0
  0
ENDSEC
  0
SECTION
  2
TABLES
  0
TABLE
  2
VPORT
  5
8
330
0
100
AcDbSymbolTable
 70
1
  0
VPORT
  5
23
330
8
100
AcDbSymbolTableRecord
100
AcDbViewportTableRecord
  2
*Active
 70
0
 10
0.0
 20
0.0
 11
1.0
 21
1.0
 12
0.0
 22
0.0
 13
0.0
 23
0.0
 14
0.5
 24
0.5
 15
0.5
 25
0.5
 16
0.0
 26
0.0
 36
1.0
 17
0.0
 27
0.0
 37
0.0
 40
1000.0
 41
1.34
 42
50.0
 43
0.0
 44
0.0
 50
0.0
 51
0.0
 71
0
 72
1000
 73
1
 74
3
 75
0
 76
0
 77
0
 78
0
281
0
 65
0
146
0.0
  0
ENDTAB
  0
TABLE
  2
LTYPE
  5
2
330
0
100
AcDbSymbolTable
 70
3
  0
LTYPE
  5
24
330
2
100
AcDbSymbolTableRecord
100
AcDbLinetypeTableRecord
  2
ByBlock
 70
0
  3

 72
65
 73
0
 40
0.0
  0
LTYPE
  5
25
330
2
100
AcDbSymbolTableRecord
100
AcDbLinetypeTableRecord
  2
ByLayer
 70
0
  3

 72
65
 73
0
 40
0.0
  0
LTYPE
  5
26
330
2
100
AcDbSymbolTableRecord
100
AcDbLinetypeTableRecord
  2
Continuous
 70
0
  3

 72
65
 73
0
 40
0.0
  0
ENDTAB
  0
TABLE
  2
LAYER
  5
1
330
0
100
AcDbSymbolTable
 70
4
  0
LAYER
  5
27
330
1
100
AcDbSymbolTableRecord
100
AcDbLayerTableRecord
  2
0
 70
0
 62
7
  6
Continuous
370
-3
390
13
347
21
  0
LAYER
  5
28
330
1
100
AcDbSymbolTableRecord
100
AcDbLayerTableRecord
  2
Defpoints
 70
0
 62
7
  6
Continuous
290
0
370
-3
390
13
347
21
  0
LAYER
  5
2F
330
1
100
AcDbSymbolTableRecord
100
AcDbLayerTableRecord
  2
CUT
 70
0
 62
3
  6
Continuous
370
-3
390
13
347
21
  0
LAYER
  5
30
330
1
100
AcDbSymbolTableRecord
100
AcDbLayerTableRecord
  2
DIMENSIONS
 70
0
 62
8
  6
Continuous
370
-3
390
13
347
21
  0
ENDTAB
  0
TABLE
  2
STYLE
  5
5
330
0
100
AcDbSymbolTable
 70
1
  0
STYLE
  5
29
330
5
100
AcDbSymbolTableRecord
100
AcDbTextStyleTableRecord
  2
Standard
 70
0
 40
0.0
 41
1.0
 50
0.0
 71
0
 42
2.5
  3
txt
  4

  0
ENDTAB
  0
TABLE
  2
VIEW
  5
7
330
0
100
AcDbSymbolTable
 70
0
  0
ENDTAB
  0
TABLE
  2
UCS
  5
6
330
0
100
AcDbSymbolTable
 70
0
  0
ENDTAB
  0
TABLE
  2
APPID
  5
3
330
0
100
AcDbSymbolTable
 70
3
  0
APPID
  5
2A
330
3
100
AcDbSymbolTableRecord
100
AcDbRegAppTableRecord
  2
ACAD
 70
0
  0
APPID
  5
78
330
3
100
AcDbSymbolTableRecord
100
AcDbRegAppTableRecord
  2
HATCHBACKGROUNDCOLOR
 70
0
  0
APPID
  5
79
330
3
100
AcDbSymbolTableRecord
100
AcDbRegAppTableRecord
  2
EZDXF
 70
0
  0
ENDTAB
  0
TABLE
  2
DIMSTYLE
  5
4
330
0
100
AcDbSymbolTable
 70
1
100
AcDbDimStyleTable
  0
DIMSTYLE
105
2B
330
4
100
AcDbSymbolTableRecord
100
AcDbDimStyleTableRecord
  2
Standard
 70
0
 40
1.0
 41
2.5
 42
0.625
 43
3.75
 44
1.25
 45
0.0
 46
0.0
 47
0.0
 48
0.0
 49
2.5
140
2.5
141
2.5
142
0.0
143
0.03937007874
144
1.0
145
0.0
146
1.0
147
0.625
148
0.0
 69
0
 70
0
 71
0
 72
0
 73
0
 74
0
 75
0
 76
0
 77
1
 78
8
 79
3
170
0
171
3
172
1
173
0
174
0
175
0
176
0
177
0
178
0
179
2
271
2
272
2
273
2
274
3
275
0
276
0
277
2
278
44
279
0
280
0
281
0
282
0
283
0
284
8
285
0
286
0
288
0
289
3
290
0
371
-2
372
-2
  0
ENDTAB
  0
TABLE
  2
BLOCK_RECORD
  5
9
330
0
100
AcDbSymbolTable
 70
2
  0
BLOCK_RECORD
  5
17
330
9
100
AcDbSymbolTableRecord
100
AcDbBlockTableRecord
  2
*Model_Space
340
1A
 70
0
280
1
281
0
  0
BLOCK_RECORD
  5
1B
330
9
100
AcDbSymbolTableRecord
100
AcDbBlockTableRecord
  2
*Paper_Space
340
1E
 70
0
280
1
281
0
  0
ENDTAB
  0
ENDSEC
  0
SECTION
  2
BLOCKS
  0
BLOCK
  5
18
330
17
100
AcDbEntity
  8
0
100
AcDbBlockBegin
  2
*Model_Space
 70
0
 10
0.0
 20
0.0
 30
0.0
  3
*Model_Space
  1

  0
ENDBLK
  5
19
330
17
100
AcDbEntity
  8
0
100
AcDbBlockEnd
  0
BLOCK
  5
1C
330
1B
100
AcDbEntity
  8
0
100
AcDbBlockBegin
  2
*Paper_Space
 70
0
 10
0.0
 20
0.0
 30
0.0
  3
*Paper_Space
  1

  0
ENDBLK
  5
1D
330
1B
100
AcDbEntity
  8
0
100
AcDbBlockEnd
  0
ENDSEC
  0
SECTION
  2
ENTITIES
  0
LINE
  5
31
330
17
100
AcDbEntity
  8
CUT
100
AcDbLine
 10
70.0
 20
0.0
 30
0.0
 11
69.66293086705379
 21
6.861199823069242
 31
0.0
  0
LINE
  5
32
330
17
100
AcDbEntity
  8
CUT
100
AcDbLine
 10
69.66293086705379
 20
6.861199823069242
 30
0.0
 11
68.65496962822613
 21
13.656322541128977
 31
0.0
  0
LINE
  5
33
330
17
100
AcDbEntity
  8
CUT
100
AcDbLine
 10
68.65496962822613
 20
13.656322541128977
 30
0.0
 11
66.98582350125461
 21
20.31992740781236
 31
0.0
  0
LINE
  5
34
330
17
100
AcDbEntity
  8
CUT
100
AcDbLine
 10
66.98582350125461
 20
20.31992740781236
 30
0.0
 11
64.67156727579007
 21
26.787840265556284
 31
0.0
  0
LINE
  5
35
330
17
100
AcDbEntity
  8
CUT
100
AcDbLine
 10
64.67156727579007
 20
26.787840265556284
 30
0.0
 11
61.734488504384856
 21
32.99777157781983
 31
0.0
  0
LINE
  5
36
330
17
100
AcDbEntity
  8
CUT
100
AcDbLine
 10
61.734488504384856
 20
32.99777157781983
 30
0.0
 11
58.202872861178164
 21
38.889916311372154
 31
0.0
  0
LINE
  5
37
330
17
100
AcDbEntity
  8
CUT
100
AcDbLine
 10
58.202872861178164
 20
38.889916311372154
 30
0.0
 11
54.11073173539159
 21
44.407529891455184
 31
0.0
  0
LINE
  5
38
330
17
100
AcDbEntity
  8
CUT
100
AcDbLine
 10
54.11073173539159
 20
44.407529891455184
 30
0.0
 11
49.49747468305833
 21
49.49747468305833
 31
0.0
  0
LINE
  5
39
330
17
100
AcDbEntity
  8
CUT
100
AcDbLine
 10
49.49747468305833
 20
49.49747468305833
 30
0.0
 11
44.407529891455184
 21
54.11073173539158
 31
0.0
  0
LINE
  5
3A
330
17
100
AcDbEntity
  8
CUT
100
AcDbLine
 10
44.407529891455184
 20
54.11073173539158
 30
0.0
 11
38.88991631137216
 21
58.202872861178164
 31
0.0
  0
LINE
  5
3B
330
17
100
AcDbEntity
  8
CUT
100
AcDbLine
 10
38.88991631137216
 20
58.202872861178164
 30
0.0
 11
32.99777157781985
 21
61.73448850438484
 31
0.0
  0
LINE
  5
3C
330
17
100
AcDbEntity
  8
CUT
100
AcDbLine
 10
32.99777157781985
 20
61.73448850438484
 30
0.0
 11
26.787840265556287
 21
64.67156727579007
 31
0.0
  0
LINE
  5
3D
330
17
100
AcDbEntity
  8
CUT
100
AcDbLine
 10
26.787840265556287
 20
64.67156727579007
 30
0.0
 11
20.31992740781236
 21
66.98582350125463
 31
0.0
  0
LINE
  5
3E
330
17
100
AcDbEntity
  8
CUT
100
AcDbLine
 10
20.31992740781236
 20
66.98582350125463
 30
0.0
 11
13.656322541128983
 21
68.65496962822613
 31
0.0
  0
LINE
  5
3F
330
17
100
AcDbEntity
  8
CUT
100
AcDbLine
 10
13.656322541128983
 20
68.65496962822613
 30
0.0
 11
6.861199823069254
 21
69.66293086705377
 31
0.0
  0
LINE
  5
40
330
17
100
AcDbEntity
  8
CUT
100
AcDbLine
 10
6.861199823069254
 20
69.66293086705377
 30
0.0
 11
4.2862637970157365e-15
 21
70.0
 31
0.0
  0
LINE
  5
41
330
17
100
AcDbEntity
  8
CUT
100
AcDbLine
 10
4.2862637970157365e-15
 20
70.0
 30
0.0
 11
-6.861199823069245
 21
69.66293086705379
 31
0.0
  0
LINE
  5
42
330
17
100
AcDbEntity
  8
CUT
100
AcDbLine
 10
-6.861199823069245
 20
69.66293086705379
 30
0.0
 11
-13.656322541128974
 21
68.65496962822613
 31
0.0
  0
LINE
  5
43
330
17
100
AcDbEntity
  8
CUT
100
AcDbLine
 10
-13.656322541128974
 20
68.65496962822613
 30
0.0
 11
-20.31992740781235
 21
66.98582350125463
 31
0.0
  0
LINE
  5
44
330
17
100
AcDbEntity
  8
CUT
100
AcDbLine
 10
-20.31992740781235
 20
66.98582350125463
 30
0.0
 11
-26.78784026555628
 21
64.67156727579007
 31
0.0
  0
LINE
  5
45
330
17
100
AcDbEntity
  8
CUT
100
AcDbLine
 10
-26.78784026555628
 20
64.67156727579007
 30
0.0
 11
-32.99777157781984
 21
61.734488504384856
 31
0.0
  0
LINE
  5
46
330
17
100
AcDbEntity
  8
CUT
100
AcDbLine
 10
-32.99777157781984
 20
61.734488504384856
 30
0.0
 11
-38.88991631137214
 21
58.20287286117817
 31
0.0
  0
LINE
  5
47
330
17
100
AcDbEntity
  8
CUT
100
AcDbLine
 10
-38.88991631137214
 20
58.20287286117817
 30
0.0
 11
-44.40752989145518
 21
54.110731735391596
 31
0.0
  0
LINE
  5
48
330
17
100
AcDbEntity
  8
CUT
100
AcDbLine
 10
-44.40752989145518
 20
54.110731735391596
 30
0.0
 11
-49.49747468305832
 21
49.49747468305833
 31
0.0
  0
LINE
  5
49
330
17
100
AcDbEntity
  8
CUT
100
AcDbLine
 10
-49.49747468305832
 20
49.49747468305833
 30
0.0
 11
-54.11073173539159
 21
44.407529891455184
 31
0.0
  0
LINE
  5
4A
330
17
100
AcDbEntity
  8
CUT
100
AcDbLine
 10
-54.11073173539159
 20
44.407529891455184
 30
0.0
 11
-58.20287286117817
 21
38.889916311372154
 31
0.0
  0
LINE
  5
4B
330
17
100
AcDbEntity
  8
CUT
100
AcDbLine
 10
-58.20287286117817
 20
38.889916311372154
 30
0.0
 11
-61.73448850438484
 21
32.99777157781985
 31
0.0
  0
LINE
  5
4C
330
17
100
AcDbEntity
  8
CUT
100
AcDbLine
 10
-61.73448850438484
 20
32.99777157781985
 30
0.0
 11
-64.67156727579007
 21
26.78784026555629
 31
0.0
  0
LINE
  5
4D
330
17
100
AcDbEntity
  8
CUT
100
AcDbLine
 10
-64.67156727579007
 20
26.78784026555629
 30
0.0
 11
-66.98582350125461
 21
20.31992740781237
 31
0.0
  0
LINE
  5
4E
330
17
100
AcDbEntity
  8
CUT
100
AcDbLine
 10
-66.98582350125461
 20
20.31992740781237
 30
0.0
 11
-68.65496962822613
 21
13.656322541129002
 31
0.0
  0
LINE
  5
4F
330
17
100
AcDbEntity
  8
CUT
100
AcDbLine
 10
-68.65496962822613
 20
13.656322541129002
 30
0.0
 11
-69.66293086705377
 21
6.861199823069258
 31
0.0
  0
LINE
  5
50
330
17
100
AcDbEntity
  8
CUT
100
AcDbLine
 10
-69.66293086705377
 20
6.861199823069258
 30
0.0
 11
-70.0
 21
8.572527594031473e-15
 31
0.0
  0
LINE
  5
51
330
17
100
AcDbEntity
  8
CUT
100
AcDbLine
 10
-70.0
 20
8.572527594031473e-15
 30
0.0
 11
-69.66293086705379
 21
-6.861199823069241
 31
0.0
  0
LINE
  5
52
330
17
100
AcDbEntity
  8
CUT
100
AcDbLine
 10
-69.66293086705379
 20
-6.861199823069241
 30
0.0
 11
-68.65496962822613
 21
-13.656322541128985
 31
0.0
  0
LINE
  5
53
330
17
100
AcDbEntity
  8
CUT
100
AcDbLine
 10
-68.65496962822613
 20
-13.656322541128985
 30
0.0
 11
-66.98582350125463
 21
-20.319927407812347
 31
0.0
  0
LINE
  5
54
330
17
100
AcDbEntity
  8
CUT
100
AcDbLine
 10
-66.98582350125463
 20
-20.319927407812347
 30
0.0
 11
-64.67156727579008
 21
-26.787840265556277
 31
0.0
  0
LINE
  5
55
330
17
100
AcDbEntity
  8
CUT
100
AcDbLine
 10
-64.67156727579008
 20
-26.787840265556277
 30
0.0
 11
-61.734488504384856
 21
-32.99777157781983
 31
0.0
  0
LINE
  5
56
330
17
100
AcDbEntity
  8
CUT
100
AcDbLine
 10
-61.734488504384856
 20
-32.99777157781983
 30
0.0
 11
-58.20287286117818
 21
-38.88991631137214
 31
0.0
  0
LINE
  5
57
330
17
100
AcDbEntity
  8
CUT
100
AcDbLine
 10
-58.20287286117818
 20
-38.88991631137214
 30
0.0
 11
-54.110731735391596
 21
-44.40752989145517
 31
0.0
  0
LINE
  5
58
330
17
100
AcDbEntity
  8
CUT
100
AcDbLine
 10
-54.110731735391596
 20
-44.40752989145517
 30
0.0
 11
-49.497474683058336
 21
-49.49747468305832
 31
0.0
  0
LINE
  5
59
330
17
100
AcDbEntity
  8
CUT
100
AcDbLine
 10
-49.497474683058336
 20
-49.49747468305832
 30
0.0
 11
-44.40752989145521
 21
-54.11073173539157
 31
0.0
  0
LINE
  5
5A
330
17
100
AcDbEntity
  8
CUT
100
AcDbLine
 10
-44.40752989145521
 20
-54.11073173539157
 30
0.0
 11
-38.889916311372154
 21
-58.202872861178164
 31
0.0
  0
LINE
  5
5B
330
17
100
AcDbEntity
  8
CUT
100
AcDbLine
 10
-38.889916311372154
 20
-58.202872861178164
 30
0.0
 11
-32.99777157781985
 21
-61.73448850438484
 31
0.0
  0
LINE
  5
5C
330
17
100
AcDbEntity
  8
CUT
100
AcDbLine
 10
-32.99777157781985
 20
-61.73448850438484
 30
0.0
 11
-26.787840265556323
 21
-64.67156727579005
 31
0.0
  0
LINE
  5
5D
330
17
100
AcDbEntity
  8
CUT
100
AcDbLine
 10
-26.787840265556323
 20
-64.67156727579005
 30
0.0
 11
-20.319927407812372
 21
-66.98582350125461
 31
0.0
  0
LINE
  5
5E
330
17
100
AcDbEntity
  8
CUT
100
AcDbLine
 10
-20.319927407812372
 20
-66.98582350125461
 30
0.0
 11
-13.656322541129006
 21
-68.65496962822613
 31
0.0
  0
LINE
  5
5F
330
17
100
AcDbEntity
  8
CUT
100
AcDbLine
 10
-13.656322541129006
 20
-68.65496962822613
 30
0.0
 11
-6.8611998230692315
 21
-69.66293086705379
 31
0.0
  0
LINE
  5
60
330
17
100
AcDbEntity
  8
CUT
100
AcDbLine
 10
-6.8611998230692315
 20
-69.66293086705379
 30
0.0
 11
-1.2858791391047208e-14
 21
-70.0
 31
0.0
  0
LINE
  5
61
330
17
100
AcDbEntity
  8
CUT
100
AcDbLine
 10
-1.2858791391047208e-14
 20
-70.0
 30
0.0
 11
6.861199823069207
 21
-69.66293086705379
 31
0.0
  0
LINE
  5
62
330
17
100
AcDbEntity
  8
CUT
100
AcDbLine
 10
6.861199823069207
 20
-69.66293086705379
 30
0.0
 11
13.656322541128981
 21
-68.65496962822613
 31
0.0
  0
LINE
  5
63
330
17
100
AcDbEntity
  8
CUT
100
AcDbLine
 10
13.656322541128981
 20
-68.65496962822613
 30
0.0
 11
20.319927407812344
 21
-66.98582350125463
 31
0.0
  0
LINE
  5
64
330
17
100
AcDbEntity
  8
CUT
100
AcDbLine
 10
20.319927407812344
 20
-66.98582350125463
 30
0.0
 11
26.7878402655563
 21
-64.67156727579007
 31
0.0
  0
LINE
  5
65
330
17
100
AcDbEntity
  8
CUT
100
AcDbLine
 10
26.7878402655563
 20
-64.67156727579007
 30
0.0
 11
32.99777157781983
 21
-61.734488504384856
 31
0.0
  0
LINE
  5
66
330
17
100
AcDbEntity
  8
CUT
100
AcDbLine
 10
32.99777157781983
 20
-61.734488504384856
 30
0.0
 11
38.889916311372126
 21
-58.20287286117818
 31
0.0
  0
LINE
  5
67
330
17
100
AcDbEntity
  8
CUT
100
AcDbLine
 10
38.889916311372126
 20
-58.20287286117818
 30
0.0
 11
44.40752989145519
 21
-54.11073173539158
 31
0.0
  0
LINE
  5
68
330
17
100
AcDbEntity
  8
CUT
100
AcDbLine
 10
44.40752989145519
 20
-54.11073173539158
 30
0.0
 11
49.497474683058314
 21
-49.497474683058336
 31
0.0
  0
LINE
  5
69
330
17
100
AcDbEntity
  8
CUT
100
AcDbLine
 10
49.497474683058314
 20
-49.497474683058336
 30
0.0
 11
54.11073173539156
 21
-44.40752989145521
 31
0.0
  0
LINE
  5
6A
330
17
100
AcDbEntity
  8
CUT
100
AcDbLine
 10
54.11073173539156
 20
-44.40752989145521
 30
0.0
 11
58.202872861178164
 21
-38.889916311372154
 31
0.0
  0
LINE
  5
6B
330
17
100
AcDbEntity
  8
CUT
100
AcDbLine
 10
58.202872861178164
 20
-38.889916311372154
 30
0.0
 11
61.734488504384835
 21
-32.997771577819854
 31
0.0
  0
LINE
  5
6C
330
17
100
AcDbEntity
  8
CUT
100
AcDbLine
 10
61.734488504384835
 20
-32.997771577819854
 30
0.0
 11
64.67156727579005
 21
-26.787840265556326
 31
0.0
  0
LINE
  5
6D
330
17
100
AcDbEntity
  8
CUT
100
AcDbLine
 10
64.67156727579005
 20
-26.787840265556326
 30
0.0
 11
66.98582350125461
 21
-20.319927407812376
 31
0.0
  0
LINE
  5
6E
330
17
100
AcDbEntity
  8
CUT
100
AcDbLine
 10
66.98582350125461
 20
-20.319927407812376
 30
0.0
 11
68.65496962822613
 21
-13.656322541129011
 31
0.0
  0
LINE
  5
6F
330
17
100
AcDbEntity
  8
CUT
100
AcDbLine
 10
68.65496962822613
 20
-13.656322541129011
 30
0.0
 11
69.66293086705379
 21
-6.861199823069235
 31
0.0
  0
LINE
  5
70
330
17
100
AcDbEntity
  8
CUT
100
AcDbLine
 10
69.66293086705379
 20
-6.861199823069235
 30
0.0
 11
70.0
 21
0.0
 31
0.0
  0
LWPOLYLINE
  5
71
330
17
100
AcDbEntity
  8
CUT
100
AcDbPolyline
 90
48
 70
1
 10
28.0
 20
0.0
 10
27.760456118466692
 20
3.654733382161444
 10
27.04592313609391
 20
7.246933262870581
 10
25.868626910316028
 20
10.715136106222515
 10
24.248711305964285
 20
13.999999999999998
 10
22.213893528154586
 20
17.04532001224418
 10
19.79898987322333
 20
19.79898987322333
 10
17.04532001224418
 20
22.213893528154586
 10
14.000000000000004
 20
24.24871130596428
 10
10.715136106222516
 20
25.868626910316028
 10
7.246933262870581
 20
27.04592313609391
 10
3.654733382161448
 20
27.760456118466692
 10
1.7145055188062944e-15
 20
28.0
 10
-3.654733382161445
 20
27.760456118466692
 10
-7.246933262870577
 20
27.04592313609391
 10
-10.715136106222506
 20
25.86862691031603
 10
-13.999999999999993
 20
24.248711305964285
 10
-17.04532001224418
 20
22.213893528154586
 10
-19.798989873223327
 20
19.79898987322333
 10
-22.213893528154582
 20
17.045320012244183
 10
-24.248711305964285
 20
13.999999999999998
 10
-25.868626910316028
 20
10.715136106222516
 10
-27.04592313609391
 20
7.246933262870589
 10
-27.760456118466692
 20
3.6547333821614556
 10
-28.0
 20
3.429011037612589e-15
 10
-27.760456118466692
 20
-3.6547333821614494
 10
-27.04592313609391
 20
-7.2469332628705825
 10
-25.86862691031603
 20
-10.715136106222511
 10
-24.248711305964285
 20
-13.999999999999993
 10
-22.213893528154586
 20
-17.04532001224418
 10
-19.79898987322334
 20
-19.79898987322332
 10
-17.045320012244183
 20
-22.21389352815458
 10
-14.000000000000012
 20
-24.248711305964278
 10
-10.715136106222506
 20
-25.86862691031603
 10
-7.246933262870577
 20
-27.04592313609391
 10
-3.654733382161446
 20
-27.760456118466692
 10
-5.143516556418883e-15
 20
-28.0
 10
3.6547333821614356
 20
-27.760456118466692
 10
7.246933262870568
 20
-27.045923136093915
 10
10.715136106222497
 20
-25.868626910316035
 10
14.000000000000004
 20
-24.24871130596428
 10
17.045320012244158
 20
-22.2138935281546
 10
19.798989873223327
 20
-19.798989873223334
 10
22.21389352815458
 20
-17.045320012244186
 10
24.248711305964274
 20
-14.000000000000012
 10
25.86862691031603
 20
-10.715136106222507
 10
27.045923136093908
 20
-7.246933262870604
 10
27.760456118466692
 20
-3.654733382161447
  0
LWPOLYLINE
  5
72
330
17
100
AcDbEntity
  8
CUT
100
AcDbPolyline
 90
24
 70
1
 10
53.0
 20
0.0
 10
52.829629131445344
 20
1.2940952255126037
 10
52.33012701892219
 20
2.4999999999999996
 10
51.53553390593274
 20
3.5355339059327378
 10
50.5
 20
4.330127018922193
 10
49.294095225512606
 20
4.8296291314453415
 10
48.0
 20
5.0
 10
46.705904774487394
 20
4.8296291314453415
 10
45.5
 20
4.330127018922194
 10
44.46446609406726
 20
3.5355339059327378
 10
43.66987298107781
 20
2.4999999999999996
 10
43.170370868554656
 20
1.294095225512605
 10
43.0
 20
6.123233995736766e-16
 10
43.170370868554656
 20
-1.294095225512604
 10
43.6698729810778
 20
-2.4999999999999987
 10
44.46446609406726
 20
-3.5355339059327355
 10
45.5
 20
-4.330127018922193
 10
46.705904774487394
 20
-4.8296291314453415
 10
48.0
 20
-5.0
 10
49.2940952255126
 20
-4.829629131445342
 10
50.5
 20
-4.330127018922193
 10
51.53553390593274
 20
-3.5355339059327386
 10
52.33012701892219
 20
-2.500000000000002
 10
52.829629131445344
 20
-1.294095225512608
  0
LWPOLYLINE
  5
73
330
17
100
AcDbEntity
  8
CUT
100
AcDbPolyline
 90
24
 70
1
 10
29.000000000000007
 20
41.569219381653056
 10
28.829629131445348
 20
42.86331460716566
 10
28.3301270189222
 20
44.069219381653056
 10
27.535533905932745
 20
45.104753287585794
 10
26.500000000000007
 20
45.89934640057525
 10
25.29409522551261
 20
46.3988485130984
 10
24.000000000000007
 20
46.569219381653056
 10
22.705904774487404
 20
46.3988485130984
 10
21.500000000000007
 20
45.89934640057525
 10
20.46446609406727
 20
45.104753287585794
 10
19.669872981077813
 20
44.069219381653056
 10
19.170370868554667
 20
42.86331460716566
 10
19.000000000000007
 20
41.569219381653056
 10
19.170370868554667
 20
40.27512415614045
 10
19.669872981077813
 20
39.069219381653056
 10
20.46446609406727
 20
38.03368547572032
 10
21.500000000000004
 20
37.239092362730865
 10
22.705904774487404
 20
36.73959025020771
 10
24.000000000000007
 20
36.569219381653056
 10
25.29409522551261
 20
36.73959025020771
 10
26.500000000000007
 20
37.239092362730865
 10
27.535533905932745
 20
38.03368547572032
 10
28.330127018922198
 20
39.069219381653056
 10
28.829629131445348
 20
40.27512415614045
  0
LWPOLYLINE
  5
74
330
17
100
AcDbEntity
  8
CUT
100
AcDbPolyline
 90
24
 70
1
 10
-18.99999999999999
 20
41.569219381653056
 10
-19.17037086855465
 20
42.86331460716566
 10
-19.669872981077795
 20
44.069219381653056
 10
-20.46446609406725
 20
45.104753287585794
 10
-21.49999999999999
 20
45.89934640057525
 10
-22.705904774487387
 20
46.3988485130984
 10
-23.99999999999999
 20
46.569219381653056
 10
-25.294095225512592
 20
46.3988485130984
 10
-26.49999999999999
 20
45.89934640057525
 10
-27.535533905932727
 20
45.104753287585794
 10
-28.330127018922184
 20
44.069219381653056
 10
-28.82962913144533
 20
42.86331460716566
 10
-28.99999999999999
 20
41.569219381653056
 10
-28.82962913144533
 20
40.27512415614045
 10
-28.330127018922184
 20
39.069219381653056
 10
-27.53553390593273
 20
38.03368547572032
 10
-26.499999999999993
 20
37.239092362730865
 10
-25.294095225512592
 20
36.73959025020771
 10
-23.99999999999999
 20
36.569219381653056
 10
-22.705904774487387
 20
36.73959025020771
 10
-21.49999999999999
 20
37.239092362730865
 10
-20.46446609406725
 20
38.03368547572032
 10
-19.6698729810778
 20
39.069219381653056
 10
-19.17037086855465
 20
40.27512415614045
  0
LWPOLYLINE
  5
75
330
17
100
AcDbEntity
  8
CUT
100
AcDbPolyline
 90
24
 70
1
 10
-43.0
 20
5.878304635907295e-15
 10
-43.170370868554656
 20
1.2940952255126095
 10
-43.66987298107781
 20
2.5000000000000053
 10
-44.46446609406726
 20
3.5355339059327435
 10
-45.5
 20
4.330127018922199
 10
-46.705904774487394
 20
4.829629131445348
 10
-48.0
 20
5.000000000000006
 10
-49.294095225512606
 20
4.829629131445348
 10
-50.5
 20
4.3301270189222
 10
-51.53553390593274
 20
3.5355339059327435
 10
-52.33012701892219
 20
2.5000000000000053
 10
-52.829629131445344
 20
1.2940952255126108
 10
-53.0
 20
6.4906280354809715e-15
 10
-52.829629131445344
 20
-1.2940952255125981
 10
-52.3301270189222
 20
-2.499999999999993
 10
-51.53553390593274
 20
-3.5355339059327298
 10
-50.5
 20
-4.3301270189221865
 10
-49.294095225512606
 20
-4.829629131445335
 10
-48.0
 20
-4.999999999999994
 10
-46.7059047744874
 20
-4.829629131445336
 10
-45.5
 20
-4.3301270189221865
 10
-44.46446609406726
 20
-3.535533905932733
 10
-43.66987298107781
 20
-2.4999999999999964
 10
-43.170370868554656
 20
-1.2940952255126021
  0
LWPOLYLINE
  5
76
330
17
100
AcDbEntity
  8
CUT
100
AcDbPolyline
 90
24
 70
1
 10
-19.00000000000002
 20
-41.56921938165305
 10
-19.17037086855468
 20
-40.27512415614044
 10
-19.669872981077827
 20
-39.06921938165305
 10
-20.464466094067284
 20
-38.03368547572031
 10
-21.50000000000002
 20
-37.23909236273086
 10
-22.70590477448742
 20
-36.739590250207705
 10
-24.00000000000002
 20
-36.56921938165305
 10
-25.294095225512624
 20
-36.739590250207705
 10
-26.50000000000002
 20
-37.23909236273086
 10
-27.53553390593276
 20
-38.03368547572031
 10
-28.330127018922216
 20
-39.06921938165305
 10
-28.829629131445362
 20
-40.27512415614044
 10
-29.00000000000002
 20
-41.56921938165305
 10
-28.829629131445362
 20
-42.863314607165655
 10
-28.330127018922216
 20
-44.06921938165305
 10
-27.53553390593276
 20
-45.10475328758579
 10
-26.500000000000025
 20
-45.89934640057524
 10
-25.294095225512624
 20
-46.39884851309839
 10
-24.00000000000002
 20
-46.56921938165305
 10
-22.70590477448742
 20
-46.39884851309839
 10
-21.50000000000002
 20
-45.89934640057524
 10
-20.464466094067284
 20
-45.10475328758579
 10
-19.66987298107783
 20
-44.06921938165305
 10
-19.17037086855468
 20
-42.863314607165655
  0
LWPOLYLINE
  5
77
330
17
100
AcDbEntity
  8
CUT
100
AcDbPolyline
 90
24
 70
1
 10
29.000000000000007
 20
-41.569219381653056
 10
28.829629131445348
 20
-40.27512415614045
 10
28.3301270189222
 20
-39.069219381653056
 10
27.535533905932745
 20
-38.03368547572032
 10
26.500000000000007
 20
-37.239092362730865
 10
25.29409522551261
 20
-36.73959025020771
 10
24.000000000000007
 20
-36.569219381653056
 10
22.705904774487404
 20
-36.73959025020771
 10
21.500000000000007
 20
-37.239092362730865
 10
20.46446609406727
 20
-38.03368547572032
 10
19.669872981077813
 20
-39.069219381653056
 10
19.170370868554667
 20
-40.27512415614045
 10
19.000000000000007
 20
-41.569219381653056
 10
19.170370868554667
 20
-42.86331460716566
 10
19.669872981077813
 20
-44.069219381653056
 10
20.46446609406727
 20
-45.104753287585794
 10
21.500000000000004
 20
-45.89934640057525
 10
22.705904774487404
 20
-46.3988485130984
 10
24.000000000000007
 20
-46.569219381653056
 10
25.29409522551261
 20
-46.3988485130984
 10
26.500000000000007
 20
-45.89934640057525
 10
27.535533905932745
 20
-45.104753287585794
 10
28.330127018922198
 20
-44.069219381653056
 10
28.829629131445348
 20
-42.86331460716566
  0
ENDSEC
  0
SECTION
  2
OBJECTS
  0
DICTIONARY
  5
A
330
0
100
AcDbDictionary
281
1
  3
ACAD_COLOR
350
B
  3
ACAD_GROUP
350
C
  3
ACAD_LAYOUT
350
D
  3
ACAD_MATERIAL
350
E
  3
ACAD_MLEADERSTYLE
350
F
  3
ACAD_MLINESTYLE
350
10
  3
ACAD_PLOTSETTINGS
350
11
  3
ACAD_PLOTSTYLENAME
350
12
  3
ACAD_SCALELIST
350
14
  3
ACAD_TABLESTYLE
350
15
  3
ACAD_VISUALSTYLE
350
16
  3
EZDXF_META
350
2D
  0
DICTIONARY
  5
B
330
A
100
AcDbDictionary
281
1
  0
DICTIONARY
  5
C
330
A
100
AcDbDictionary
281
1
  0
DICTIONARY
  5
D
330
A
100
AcDbDictionary
281
1
  3
Model
350
1A
  3
Layout1
350
1E
  0
DICTIONARY
  5
E
330
A
100
AcDbDictionary
281
1
  3
ByBlock
350
1F
  3
ByLayer
350
20
  3
Global
350
21
  0
DICTIONARY
  5
F
330
A
100
AcDbDictionary
281
1
  3
Standard
350
2C
  0
DICTIONARY
  5
10
330
A
100
AcDbDictionary
281
1
  3
Standard
350
22
  0
DICTIONARY
  5
11
330
A
100
AcDbDictionary
281
1
  0
ACDBDICTIONARYWDFLT
  5
12
330
A
100
AcDbDictionary
281
1
  3
Normal
350
13
100
AcDbDictionaryWithDefault
340
13
  0
ACDBPLACEHOLDER
  5
13
330
12
  0
DICTIONARY
  5
14
330
A
100
AcDbDictionary
281
1
  0
DICTIONARY
  5
15
330
A
100
AcDbDictionary
281
1
  0
DICTIONARY
  5
16
330
A
100
AcDbDictionary
281
1
  0
LAYOUT
  5
1A
330
D
100
AcDbPlotSettings
  1

  4
A3
  6

 40
7.5
 41
20.0
 42
7.5
 43
20.0
 44
420.0
 45
297.0
 46
0.0
 47
0.0
 48
0.0
 49
0.0
140
0.0
141
0.0
142
1.0
143
1.0
 70
1024
 72
1
 73
0
 74
5
  7

 75
16
 76
0
 77
2
 78
300
147
1.0
148
0.0
149
0.0
100
AcDbLayout
  1
Model
 70
1
 71
0
 10
0.0
 20
0.0
 11
420.0
 21
297.0
 12
0.0
 22
0.0
 32
0.0
 14
1e+20
 24
1e+20
 34
1e+20
 15
-1e+20
 25
-1e+20
 35
-1e+20
146
0.0
 13
0.0
 23
0.0
 33
0.0
 16
1.0
 26
0.0
 36
0.0
 17
0.0
 27
1.0
 37
0.0
 76
1
330
17
  0
LAYOUT
  5
1E
330
D
100
AcDbPlotSettings
  1

  4
A3
  6

 40
7.5
 41
20.0
 42
7.5
 43
20.0
 44
420.0
 45
297.0
 46
0.0
 47
0.0
 48
0.0
 49
0.0
140
0.0
141
0.0
142
1.0
143
1.0
 70
0
 72
1
 73
0
 74
5
  7

 75
16
 76
0
 77
2
 78
300
147
1.0
148
0.0
149
0.0
100
AcDbLayout
  1
Layout1
 70
1
 71
1
 10
0.0
 20
0.0
 11
420.0
 21
297.0
 12
0.0
 22
0.0
 32
0.0
 14
1e+20
 24
1e+20
 34
1e+20
 15
-1e+20
 25
-1e+20
 35
-1e+20
146
0.0
 13
0.0
 23
0.0
 33
0.0
 16
1.0
 26
0.0
 36
0.0
 17
0.0
 27
1.0
 37
0.0
 76
1
330
1B
  0
MATERIAL
  5
1F
102
{ACAD_REACTORS
330
E
102
}
330
E
100
AcDbMaterial
  1
ByBlock
  2

 70
0
 40
1.0
 71
1
 41
1.0
 91
-1023410177
 42
1.0
 72
1
  3

 73
1
 74
1
 75
1
 44
0.5
 73
0
 45
1.0
 46
1.0
 77
1
  4

 78
1
 79
1
170
1
 48
1.0
171
1
  6

172
1
173
1
174
1
140
1.0
141
1.0
175
1
  7

176
1
177
1
178
1
143
1.0
179
1
  8

270
1
271
1
272
1
145
1.0
146
1.0
273
1
  9

274
1
275
1
276
1
 42
1.0
 72
1
  3

 73
1
 74
1
 75
1
 94
63
  0
MATERIAL
  5
20
102
{ACAD_REACTORS
330
E
102
}
330
E
100
AcDbMaterial
  1
ByLayer
  2

 70
0
 40
1.0
 71
1
 41
1.0
 91
-1023410177
 42
1.0
 72
1
  3

 73
1
 74
1
 75
1
 44
0.5
 73
0
 45
1.0
 46
1.0
 77
1
  4

 78
1
 79
1
170
1
 48
1.0
171
1
  6

172
1
173
1
174
1
140
1.0
141
1.0
175
1
  7

176
1
177
1
178
1
143
1.0
179
1
  8

270
1
271
1
272
1
145
1.0
146
1.0
273
1
  9

274
1
275
1
276
1
 42
1.0
 72
1
  3

 73
1
 74
1
 75
1
 94
63
  0
MATERIAL
  5
21
102
{ACAD_REACTORS
330
E
102
}
330
E
100
AcDbMaterial
  1
Global
  2

 70
0
 40
1.0
 71
1
 41
1.0
 91
-1023410177
 42
1.0
 72
1
  3

 73
1
 74
1
 75
1
 44
0.5
 73
0
 45
1.0
 46
1.0
 77
1
  4

 78
1
 79
1
170
1
 48
1.0
171
1
  6

172
1
173
1
174
1
140
1.0
141
1.0
175
1
  7

176
1
177
1
178
1
143
1.0
179
1
  8

270
1
271
1
272
1
145
1.0
146
1.0
273
1
  9

274
1
275
1
276
1
 42
1.0
 72
1
  3

 73
1
 74
1
 75
1
 94
63
  0
MLINESTYLE
  5
22
102
{ACAD_REACTORS
330
10
102
}
330
10
100
AcDbMlineStyle
  2
Standard
 70
0
  3

 62
256
 51
90.0
 52
90.0
 71
2
 49
0.5
 62
256
  6
BYLAYER
 49
-0.5
 62
256
  6
BYLAYER
  0
MLEADERSTYLE
  5
2C
102
{ACAD_REACTORS
330
F
102
}
330
F
100
AcDbMLeaderStyle
179
2
170
2
171
1
172
0
 90
2
 40
0.0
 41
0.0
173
1
 91
-1056964608
 92
-2
290
1
 42
2.0
291
1
 43
8.0
  3
Standard
 44
4.0
300

342
29
174
1
175
1
176
0
178
1
 93
-1056964608
 45
4.0
292
0
297
0
 46
4.0
 94
-1056964608
 47
1.0
 49
1.0
140
1.0
294
1
141
0.0
177
0
142
1.0
295
0
296
0
143
3.75
271
0
272
9
273
9
  0
DICTIONARY
  5
2D
330
A
100
AcDbDictionary
280
1
281
1
  3
CREATED_BY_EZDXF
350
2E
  3
WRITTEN_BY_EZDXF
350
7A
  0
DICTIONARYVAR
  5
2E
330
2D
100
DictionaryVariables
280
0
  1
1.4.4 @ 2026-07-27T14:55:18.805521+00:00
  0
DICTIONARYVAR
  5
7A
330
2D
100
DictionaryVariables
280
0
  1
1.4.4 @ 2026-07-27T14:55:18.807741+00:00
  0
ENDSEC
  0
EOF
